<svg width="41" height="48" viewBox="0 0 41 48" fill="none">
  <path d="M40.644 24.364C40.644 31.6749 38.9061 44.3234 24.9791 44.7071C26.1198 43.5657 27.0385 42.2807 27.7747 40.928C30.2832 36.3188 30.73 30.8183 30.73 27.012V0H40.644V24.364Z" fill="#393939"/>
  <path d="M28.73 0.00399017H13.434C13.434 0.00399017 17.978 4.54799 17.978 11.716V27.012C17.978 43.268 12.41 47.364 12.41 47.364C26.938 47.364 28.73 34.436 28.73 27.012V0.00399017Z" fill="#393939"/>
  <path d="M11.84 38.532C11.84 35.268 9.216 32.58 5.888 32.58C2.624 32.58 0 35.268 0 38.532C0 41.86 2.624 44.484 5.888 44.484C9.216 44.484 11.84 41.86 11.84 38.532Z" fill="#393939"/>
</svg>
